<?xml version="1.0" encoding="utf-8"?>
<!-- Generator: Adobe Illustrator 27.7.0, SVG Export Plug-In . SVG Version: 6.00 Build 0)  -->
<svg version="1.1" id="Capa_1" xmlns="http://www.w3.org/2000/svg" xmlns:xlink="http://www.w3.org/1999/xlink" x="0px" y="0px"
	 viewBox="0 0 24 24" style="enable-background:new 0 0 24 24;" xml:space="preserve">
<style type="text/css">
	.st0{fill:#FFFFFF;}
</style>
<g>
	<g>
		<path class="st0" d="M12,11.1c-0.8,0-1.5-0.3-2-0.9C9.5,9.7,9.1,9,9.1,8.2s0.3-1.5,0.9-2c0.5-0.5,1.2-0.9,2-0.9
			c0.8,0,1.5,0.3,2,0.9c0.5,0.5,0.9,1.2,0.9,2s-0.3,1.5-0.9,2C13.5,10.9,12.8,11.1,12,11.1z M6.4,14.8c0-0.3,0.1-0.6,0.2-0.9
			c0.1-0.4,0.5-0.8,0.9-0.9c0.7-0.3,1.5-0.6,2.2-0.8c0.8-0.2,1.6-0.3,2.3-0.3c0.7,0,1.6,0.1,2.3,0.3c0.8,0.2,1.5,0.4,2.2,0.8
			c0.4,0.2,0.7,0.5,0.9,0.9c0.2,0.3,0.2,0.6,0.2,0.9v2H6.4V14.8z M7.8,15.4h8.5v-0.6c0-0.1,0-0.3-0.1-0.3c-0.1-0.1-0.2-0.2-0.3-0.3
			c-0.6-0.3-1.3-0.5-1.9-0.7c-0.6-0.2-1.3-0.3-2-0.3c-0.7,0-1.3,0.1-2,0.3c-0.6,0.2-1.3,0.4-1.9,0.7c-0.1,0.1-0.2,0.2-0.3,0.3
			c-0.1,0.1-0.1,0.3-0.1,0.3L7.8,15.4L7.8,15.4z M12,9.8c0.3,0,0.7-0.2,1-0.4c0.3-0.3,0.4-0.6,0.4-1c0-0.4-0.2-0.7-0.4-1
			C12.7,7.1,12.4,7,12,7s-0.7,0.2-1,0.4c-0.3,0.3-0.4,0.6-0.4,1c0,0.4,0.2,0.7,0.4,1C11.3,9.6,11.7,9.8,12,9.8z"/>
	</g>
	<circle class="st0" cx="12" cy="8.4" r="2.3"/>
	<rect x="7.7" y="13.4" class="st0" width="9.2" height="2.5"/>
	<rect x="9.9" y="12.8" class="st0" width="4.4" height="1.3"/>
</g>
</svg>
