<?xml version="1.0" encoding="utf-8"?>
<!-- Generator: Adobe Illustrator 27.7.0, SVG Export Plug-In . SVG Version: 6.00 Build 0)  -->
<svg version="1.1" id="Capa_2_00000029032928719105545700000018352348008618104718_"
	 xmlns="http://www.w3.org/2000/svg" xmlns:xlink="http://www.w3.org/1999/xlink" x="0px" y="0px" viewBox="0 0 48 48"
	 style="enable-background:new 0 0 48 48;" xml:space="preserve">
<style type="text/css">
	.st0{fill:#8DA5D4;}
	.st1{fill:#FFFFFF;}
</style>
<path class="st0" d="M200.2,0L200.2,0c13.3,0,24,10.7,24,24l0,0c0,13.3-10.7,24-24,24l0,0c-13.3,0-24-10.7-24-24l0,0
	C176.2,10.7,187,0,200.2,0z"/>
<path class="st1" d="M27.3,37.3c-1.9,0-3.7-0.3-5.4-1.1c-1.7-0.7-3.2-1.7-4.5-2.9s-2.3-2.6-3.1-4.2c-0.8-1.6-1.1-3.3-1.1-5.1
	s0.4-3.5,1.1-5.2s1.8-3,3.1-4.2s2.8-2.2,4.5-2.9s3.5-1.1,5.4-1.1c1,0,2,0.1,2.9,0.3s1.8,0.5,2.6,0.9c-2,1.4-3.5,3.1-4.8,5.2
	s-1.8,4.4-1.8,6.9s0.6,4.8,1.8,6.9c1.2,2.1,2.8,3.8,4.8,5.2c-0.8,0.4-1.7,0.7-2.6,0.9S28.4,37.3,27.3,37.3L27.3,37.3z M27.3,35.3
	h0.9c0.3,0,0.5,0,0.7,0c-1.4-1.6-2.6-3.4-3.4-5.3c-0.8-1.9-1.2-3.9-1.2-6s0.4-4.1,1.2-6c0.8-1.9,2-3.7,3.4-5.3c-0.2,0-0.4,0-0.7,0
	h-0.9c-3.3,0-6.2,1.1-8.6,3.3s-3.6,4.9-3.6,8s1.2,5.8,3.6,8S24,35.3,27.3,35.3L27.3,35.3z"/>
</svg>
