<?xml version="1.0" encoding="utf-8"?>
<!-- Generator: Adobe Illustrator 27.7.0, SVG Export Plug-In . SVG Version: 6.00 Build 0)  -->
<svg version="1.1" id="Capa_1" xmlns="http://www.w3.org/2000/svg" xmlns:xlink="http://www.w3.org/1999/xlink" x="0px" y="0px"
	 viewBox="0 0 24 24" style="enable-background:new 0 0 24 24;" xml:space="preserve">
<style type="text/css">
	.st0{fill:#FFFFFF;}
</style>
<path class="st0" d="M14.3,15.8c-0.5,0-0.8-0.2-1.1-0.5s-0.5-0.6-0.5-1.1v-0.8h1.5v0.8h2.3v-1.5h-2.3c-0.5,0-0.8-0.2-1.1-0.5
	s-0.5-0.6-0.5-1.1V9.7c0-0.5,0.2-0.8,0.5-1.1s0.6-0.5,1.1-0.5h2.3c0.5,0,0.8,0.2,1.1,0.5c0.3,0.3,0.5,0.6,0.5,1.1v0.8h-1.5V9.7h-2.3
	v1.5h2.3c0.5,0,0.8,0.2,1.1,0.5c0.3,0.3,0.5,0.6,0.5,1.1v1.5c0,0.5-0.2,0.8-0.5,1.1s-0.6,0.5-1.1,0.5h-2.3V15.8z M5.9,8.2h5.4v1.5
	H7.4v1.5h3.1v1.5H7.4v1.5h3.8v1.5H5.9V8.2z"/>
</svg>
