<?xml version="1.0" encoding="utf-8"?>
<!-- Generator: Adobe Illustrator 27.7.0, SVG Export Plug-In . SVG Version: 6.00 Build 0)  -->
<svg version="1.1" id="Capa_2_00000046315788861473360380000017621154802827500198_"
	 xmlns="http://www.w3.org/2000/svg" xmlns:xlink="http://www.w3.org/1999/xlink" x="0px" y="0px" viewBox="0 0 48 48"
	 style="enable-background:new 0 0 48 48;" xml:space="preserve">
<style type="text/css">
	.st0{fill:#8DA5D4;}
	.st1{fill:#FFFFFF;}
</style>
<path class="st0" d="M169.4,0L169.4,0c13.3,0,24,10.7,24,24l0,0c0,13.3-10.7,24-24,24l0,0c-13.3,0-24-10.7-24-24l0,0
	C145.4,10.7,156.2,0,169.4,0z"/>
<path class="st1" d="M24,29.2c1.4,0,2.6-0.5,3.7-1.5s1.5-2.2,1.5-3.6s-0.5-2.6-1.5-3.7s-2.2-1.5-3.6-1.5s-2.6,0.5-3.7,1.5
	s-1.5,2.2-1.5,3.6s0.5,2.6,1.5,3.7S22.6,29.2,24,29.2z M24,31.4c-2,0-3.8-0.7-5.2-2.2S16.6,26,16.6,24s0.7-3.8,2.2-5.2
	s3.2-2.2,5.2-2.2s3.8,0.7,5.2,2.2s2.2,3.2,2.2,5.2s-0.7,3.8-2.2,5.2S26,31.4,24,31.4z M8.8,25.1c-0.3,0-0.6-0.1-0.8-0.3
	S7.7,24.3,7.7,24s0.1-0.6,0.3-0.8s0.5-0.3,0.8-0.3h3.7c0.3,0,0.6,0.1,0.8,0.3s0.3,0.5,0.3,0.8s-0.1,0.6-0.3,0.8s-0.5,0.3-0.8,0.3
	C12.5,25.1,8.8,25.1,8.8,25.1z M35.4,25.1c-0.3,0-0.6-0.1-0.8-0.3s-0.3-0.5-0.3-0.8s0.1-0.6,0.3-0.8s0.5-0.3,0.8-0.3h3.7
	c0.3,0,0.6,0.1,0.8,0.3s0.3,0.5,0.3,0.8s-0.1,0.6-0.3,0.8s-0.5,0.3-0.8,0.3H35.4z M24,13.7c-0.3,0-0.6-0.1-0.8-0.3s-0.3-0.5-0.3-0.8
	V8.9c0-0.3,0.1-0.6,0.3-0.8s0.5-0.3,0.8-0.3s0.6,0.1,0.8,0.3s0.3,0.5,0.3,0.8v3.7c0,0.3-0.1,0.6-0.3,0.8S24.3,13.7,24,13.7z
	 M24,40.2c-0.3,0-0.6-0.1-0.8-0.3s-0.3-0.5-0.3-0.8v-3.7c0-0.3,0.1-0.6,0.3-0.8s0.5-0.3,0.8-0.3s0.6,0.1,0.8,0.3s0.3,0.5,0.3,0.8
	v3.7c0,0.3-0.1,0.6-0.3,0.8S24.3,40.2,24,40.2z M15.1,16.7L13,14.6c-0.2-0.2-0.3-0.5-0.3-0.8c0-0.3,0.1-0.6,0.3-0.8
	c0.2-0.2,0.5-0.3,0.8-0.3s0.6,0.1,0.8,0.3l2.1,2.1c0.2,0.2,0.3,0.5,0.3,0.8s-0.1,0.6-0.3,0.8S16.2,17,15.9,17S15.4,16.9,15.1,16.7
	L15.1,16.7z M33.4,35l-2.1-2.1c-0.2-0.2-0.3-0.5-0.3-0.8s0.1-0.6,0.3-0.8c0.2-0.2,0.5-0.3,0.8-0.3c0.3,0,0.5,0.1,0.8,0.3l2.1,2.1
	c0.2,0.2,0.3,0.5,0.3,0.8c0,0.3-0.1,0.6-0.3,0.8c-0.2,0.2-0.5,0.3-0.8,0.3S33.6,35.2,33.4,35L33.4,35z M31.3,16.7
	c-0.2-0.2-0.3-0.5-0.3-0.8s0.1-0.6,0.3-0.8l2.1-2.1c0.2-0.2,0.5-0.3,0.8-0.3c0.3,0,0.6,0.1,0.8,0.3c0.2,0.2,0.3,0.5,0.3,0.8
	s-0.1,0.6-0.3,0.8l-2.1,2.1c-0.2,0.2-0.5,0.3-0.8,0.3S31.5,16.9,31.3,16.7L31.3,16.7z M13,35c-0.2-0.2-0.3-0.5-0.3-0.8
	s0.1-0.6,0.3-0.8l2.1-2.1c0.2-0.2,0.5-0.3,0.8-0.3c0.3,0,0.5,0.1,0.8,0.3c0.2,0.2,0.4,0.5,0.4,0.8s-0.1,0.5-0.3,0.8L14.6,35
	c-0.2,0.2-0.5,0.3-0.8,0.3C13.5,35.3,13.2,35.2,13,35L13,35z"/>
</svg>
