<?xml version="1.0" encoding="utf-8"?>
<!-- Generator: Adobe Illustrator 27.7.0, SVG Export Plug-In . SVG Version: 6.00 Build 0)  -->
<svg version="1.1" id="Capa_1" xmlns="http://www.w3.org/2000/svg" xmlns:xlink="http://www.w3.org/1999/xlink" x="0px" y="0px"
	 viewBox="0 0 24 24" style="enable-background:new 0 0 24 24;" xml:space="preserve">
<style type="text/css">
	.st0{fill:#FFFFFF;}
</style>
<path class="st0" d="M7.2,16c-0.4,0-0.8-0.2-1.1-0.5s-0.5-0.6-0.5-1.1V8h1.6v6.4h2.4V8h1.6v6.4c0,0.5-0.2,0.8-0.5,1.1
	S10.1,16,9.6,16H7.2z M14.4,16c-0.5,0-0.8-0.2-1.1-0.5s-0.5-0.6-0.5-1.1v-0.8h1.6v0.8h2.4v-1.6h-2.4c-0.5,0-0.8-0.2-1.1-0.5
	s-0.5-0.6-0.5-1.1V9.6c0-0.5,0.2-0.8,0.5-1.1C13.6,8.2,13.9,8,14.4,8h2.4c0.5,0,0.8,0.2,1.1,0.5c0.3,0.3,0.5,0.6,0.5,1.1v0.8h-1.6
	V9.6h-2.4v1.6h2.4c0.5,0,0.8,0.2,1.1,0.5c0.3,0.3,0.5,0.6,0.5,1.1v1.6c0,0.5-0.2,0.8-0.5,1.1S17.3,16,16.8,16H14.4z"/>
</svg>
